<svg width="180" height="64" viewBox="0 0 180 64" fill="none" xmlns="http://www.w3.org/2000/svg">
<path d="M2 46C4.4 47.65 6.5 48.45 7.05 48.65C9.5 49.55 11.5 49.75 13.6 49.75C17.15 49.75 20.6 49.2 23.45 46.35C25.85 43.95 26.6 41 26.6 37.95C26.6 35.65 26.15 33.8 24.45 32C22.7 30.1 20.5 29.35 18.4 28.7L15.75 27.9C13.7 27.3 13.1 26.7 12.85 26.4C12.5 25.95 12.4 25.5 12.4 24.9C12.4 24.15 12.75 23.6 13.25 23.1C14.1 22.3 15.25 22.1 16.1 22.1C17.25 22.1 19.2 22.3 21.8 24.35L25.25 17.6C22.1 15.95 18.25 14.9 14.95 14.9C10.9 14.9 8.1 16.35 6.4 18.05C4.95 19.5 3.35 22 3.35 26.1C3.35 27.8 3.55 30.15 5.25 32C6.6 33.5 8.65 34.25 10.05 34.7L12.3 35.4C14.45 36.05 15.75 36.4 16.6 37.15C17.3 37.75 17.55 38.5 17.55 39.15C17.55 40 17.2 40.75 16.7 41.25C16.15 41.85 15.1 42.4 13.35 42.4C10.35 42.4 7.55 40.75 5.7 39L2 46ZM48.6145 28.8C47.6645 27.75 45.5145 25.9 41.9145 25.9C38.7145 25.9 35.7645 27.15 33.8645 29.05C32.0645 30.85 30.4145 33.8 30.4145 38C30.4145 41.35 31.4645 43.9 33.6145 46.2C36.3145 49.05 39.2645 49.75 41.6645 49.75C43.8645 49.75 46.7645 49.1 48.6145 46.55V49H56.6145V26.65H48.6145V28.8ZM43.7145 32.7C45.4145 32.7 46.5645 33.45 47.3145 34.15C48.5645 35.35 48.8645 36.75 48.8645 37.8C48.8645 39.6 48.0645 40.7 47.3645 41.4C46.3645 42.4 45.0645 42.95 43.7645 42.95C42.4145 42.95 41.0145 42.25 40.1645 41.45C39.1645 40.5 38.6145 39.1 38.6145 37.8C38.6145 36.65 39.1145 35.2 40.2145 34.15C41.3645 33.05 42.7145 32.7 43.7145 32.7ZM62.125 49H70.125V39.45C70.125 38.25 70.225 35.9 71.925 34.35C73.075 33.3 74.525 33.15 75.575 33.15C77.525 33.15 78.625 33.75 79.025 33.95V26.4C77.975 26.35 77.625 26.3 77.425 26.3C75.925 26.3 74.475 26.55 73.275 27.2C72.075 27.8 70.925 28.8 70.125 30.3V26.65H62.125V49ZM99.884 28.8C98.934 27.75 96.784 25.9 93.184 25.9C89.984 25.9 87.034 27.15 85.134 29.05C83.334 30.85 81.684 33.8 81.684 38C81.684 41.35 82.734 43.9 84.884 46.2C87.584 49.05 90.534 49.75 92.934 49.75C95.134 49.75 98.034 49.1 99.884 46.55V49H107.884V26.65H99.884V28.8ZM94.984 32.7C96.684 32.7 97.834 33.45 98.584 34.15C99.834 35.35 100.134 36.75 100.134 37.8C100.134 39.6 99.334 40.7 98.634 41.4C97.634 42.4 96.334 42.95 95.034 42.95C93.684 42.95 92.284 42.25 91.434 41.45C90.434 40.5 89.884 39.1 89.884 37.8C89.884 36.65 90.384 35.2 91.484 34.15C92.634 33.05 93.984 32.7 94.984 32.7ZM113.395 12.55V49H121.395V12.55H113.395Z" fill="#D5E2EE"/>
<path d="M134.014 49H146.147L154.855 33.0585L163.099 49H175.29L160.661 22.8471L180 0.000225639L154.913 12.7091L130 0L149.166 22.8471L134.014 49Z" fill="#D5E2EE"/>
<ellipse cx="154.652" cy="11.2002" rx="5.15962" ry="7" fill="#D5E2EE"/>
</svg>
