<svg width="321" height="90" viewBox="0 0 321 90" fill="none" xmlns="http://www.w3.org/2000/svg">
<g clip-path="url(#clip0_1305_2039)">
<path d="M116.8 73.9999C120.2 73.9999 123.3 73.9999 126.4 73.9999C129.8 81.2999 139.1 84.0999 146 79.8999C147.1 79.1999 148.3 77.5999 148.3 76.3999C148.3 75.1999 147 73.3999 145.9 72.9999C142.1 71.6999 138.2 70.9999 134.4 69.9999C131.3 69.1999 128.1 68.5999 125.3 67.2999C117.3 63.6999 116.3 53.3999 123.2 47.9999C126.9 45.0999 131.3 44.1999 135.9 43.9999C140.8 43.8999 145.6 44.6999 149.8 47.6999C154 50.6999 156.3 54.6999 156.9 59.9999C153.6 59.9999 150.5 59.9999 147.4 59.9999C145.3 52.8999 139.5 51.5999 133.4 52.5999C132.7 52.6999 132 52.8999 131.3 53.1999C129.7 53.8999 128.3 54.8999 128.4 56.8999C128.5 58.7999 129.9 59.7999 131.4 60.1999C135.2 61.2999 139 61.9999 142.8 63.0999C145.9 63.9999 149 64.6999 151.8 66.1999C160.2 70.5999 160.6 80.9999 152.8 86.2999C144.8 91.6999 129.8 91.0999 122.4 84.8999C118.9 82.0999 117.4 78.3999 116.8 73.9999Z" fill="#CDDBE7"/>
<path d="M200.8 89.2C197.8 89.2 195 89.2 192.1 89.2C192.1 88.1 192.1 87 192.1 85.4C188 89.9 183 90.2 177.9 89.9C172.7 89.5 167.9 88.1 164.7 83.5C159.8 76.6 161 63.2 166.7 57.7C171.7 52.9 187 51.6 191.9 57.9C191.9 56.6 191.9 55.6 191.9 54.4C195 54.4 197.8 54.4 200.8 54.4C200.8 65.9 200.8 77.4 200.8 89.2ZM170.6 71.8C170.5 74.3 171.2 76.9 173.3 78.8C177.1 82.3 185.8 82.2 189.4 78.6C192.3 75.7 192.5 72.2 191.5 68.5C190.6 65.2 188.2 63.2 184.9 62.6C183.2 62.3 181.4 62.1 179.7 62.2C174 62.5 170.5 66.1 170.6 71.8Z" fill="#CDDBE7"/>
<path d="M269.6 54.2999C269.6 65.9999 269.6 77.4999 269.6 89.0999C266.7 89.0999 263.9 89.0999 261 89.0999C260.9 87.9999 260.9 86.8999 260.8 85.4999C255.8 90.4999 249.8 90.2999 243.8 89.3999C239.9 88.7999 236.3 87.1999 233.8 83.7999C228.7 77.0999 229.4 63.6999 235.1 57.9999C241.1 52.0999 253.4 51.7999 260.7 57.4999C260.8 56.2999 260.9 55.2999 260.9 54.1999C263.8 54.2999 266.6 54.2999 269.6 54.2999ZM249.4 61.8999C248 62.2999 245.9 62.5999 244.1 63.3999C240.5 64.8999 239 68.0999 239.4 72.7999C239.7 76.8999 241.8 79.8999 245.5 80.5999C248.2 81.0999 251.1 81.1999 253.9 80.7999C258.2 80.0999 260.8 76.5999 260.9 72.0999C261 67.3999 258.6 63.7999 254.4 62.6999C252.9 62.2999 251.4 62.1999 249.4 61.8999Z" fill="#CDDBE7"/>
<path d="M213.3 59.7999C218 54.2999 224.1 54.3999 230.4 54.5999C230.4 57.0999 230.4 59.3999 230.4 61.8999C228.3 61.9999 226.2 62.0999 224.1 62.2999C218.8 62.7999 212.9 66.6999 213.3 74.3999C213.6 79.1999 213.3 83.9999 213.3 88.7999C213.3 88.8999 213.2 89.0999 213.2 89.3999C210.4 89.3999 207.6 89.3999 204.7 89.3999C204.7 77.8999 204.7 66.2999 204.7 54.5999C207.5 54.5999 210.3 54.5999 213.3 54.5999C213.3 56.3999 213.3 58.0999 213.3 59.7999Z" fill="#CDDBE7"/>
<path d="M273.3 45C276.3 45 279.1 45 282.1 45C282.1 59.8 282.1 74.6 282.1 89.4C279.2 89.4 276.3 89.4 273.3 89.4C273.3 74.6 273.3 59.9 273.3 45Z" fill="#CDDBE7"/>
<path d="M306.2 74.6C306.8 73.8 307.4 73 308.1 72.1C312.4 77.9 316.5 83.4 320.7 89.1C318.4 89.7 316.8 89.4 315.4 87.3C312.5 83 309.3 78.9 306.2 74.6Z" fill="#CDDBE7"/>
<path d="M308.3 61.6C306.4 60.2 306.1 59 307.6 57.1C310.3 53.8 312.9 50.4 315.3 46.8C316.6 44.8 318.2 44.2 320.7 44.8C316.5 50.5 312.4 56.1 308.3 61.6Z" fill="#CDDBE7"/>
<path d="M285.8 44.7999C289.1 44.2999 291.3 44.5999 293.4 46.4999C300 52.7999 306.9 58.9999 313.8 65.2999C314.4 65.7999 314.9 66.3999 315.5 66.9999C307.6 74.1999 299.9 81.4999 291.8 88.4999C290.9 89.2999 288.2 89.1999 286.4 89.5999C286.2 89.3999 286 89.1999 285.8 88.9999C286.4 88.4999 286.9 87.8999 287.5 87.3999C294.4 81.0999 301.2 74.7999 308.2 68.4999C309.6 67.2999 309.5 66.4999 308.2 65.2999C301.3 59.0999 294.5 52.7999 287.7 46.5999C287.1 46.0999 286.5 45.4999 285.8 44.7999Z" fill="#CDDBE7"/>
<mask id="mask0_1305_2039" style="mask-type:luminance" maskUnits="userSpaceOnUse" x="2" y="0" width="42" height="42">
<path d="M43.4998 0H2.2998C2.2998 10.9 6.5998 21.4 14.2998 29.1C21.9998 36.8 32.4998 41.2 43.3998 41.2L43.4998 0Z" fill="white"/>
</mask>
<g mask="url(#mask0_1305_2039)">
<path d="M5.4 10.8C8.38234 10.8 10.8 8.38234 10.8 5.4C10.8 2.41766 8.38234 0 5.4 0C2.41766 0 0 2.41766 0 5.4C0 8.38234 2.41766 10.8 5.4 10.8Z" fill="#CDDBE7"/>
<path d="M16.2999 10.8C19.2822 10.8 21.6999 8.38234 21.6999 5.4C21.6999 2.41766 19.2822 0 16.2999 0C13.3176 0 10.8999 2.41766 10.8999 5.4C10.8999 8.38234 13.3176 10.8 16.2999 10.8Z" fill="#CDDBE7"/>
<path d="M27.1998 10.8C30.1821 10.8 32.5998 8.38234 32.5998 5.4C32.5998 2.41766 30.1821 0 27.1998 0C24.2175 0 21.7998 2.41766 21.7998 5.4C21.7998 8.38234 24.2175 10.8 27.1998 10.8Z" fill="#CDDBE7"/>
<path d="M38.1002 10.8C41.0825 10.8 43.5002 8.38234 43.5002 5.4C43.5002 2.41766 41.0825 0 38.1002 0C35.1179 0 32.7002 2.41766 32.7002 5.4C32.7002 8.38234 35.1179 10.8 38.1002 10.8Z" fill="#CDDBE7"/>
<path d="M5.4 21.7C8.38234 21.7 10.8 19.2824 10.8 16.3C10.8 13.3177 8.38234 10.9 5.4 10.9C2.41766 10.9 0 13.3177 0 16.3C0 19.2824 2.41766 21.7 5.4 21.7Z" fill="#CDDBE7"/>
<path d="M16.2999 21.7C19.2822 21.7 21.6999 19.2824 21.6999 16.3C21.6999 13.3177 19.2822 10.9 16.2999 10.9C13.3176 10.9 10.8999 13.3177 10.8999 16.3C10.8999 19.2824 13.3176 21.7 16.2999 21.7Z" fill="#CDDBE7"/>
<path d="M27.1998 21.7C30.1821 21.7 32.5998 19.2824 32.5998 16.3C32.5998 13.3177 30.1821 10.9 27.1998 10.9C24.2175 10.9 21.7998 13.3177 21.7998 16.3C21.7998 19.2824 24.2175 21.7 27.1998 21.7Z" fill="#CDDBE7"/>
<path d="M38.1002 21.7C41.0825 21.7 43.5002 19.2824 43.5002 16.3C43.5002 13.3177 41.0825 10.9 38.1002 10.9C35.1179 10.9 32.7002 13.3177 32.7002 16.3C32.7002 19.2824 35.1179 21.7 38.1002 21.7Z" fill="#CDDBE7"/>
<path d="M5.4 32.6C8.38234 32.6 10.8 30.1824 10.8 27.2001C10.8 24.2177 8.38234 21.8 5.4 21.8C2.41766 21.8 0 24.2177 0 27.2001C0 30.1824 2.41766 32.6 5.4 32.6Z" fill="#CDDBE7"/>
<path d="M16.2999 32.6C19.2822 32.6 21.6999 30.1824 21.6999 27.2001C21.6999 24.2177 19.2822 21.8 16.2999 21.8C13.3176 21.8 10.8999 24.2177 10.8999 27.2001C10.8999 30.1824 13.3176 32.6 16.2999 32.6Z" fill="#CDDBE7"/>
<path d="M27.1998 32.6C30.1821 32.6 32.5998 30.1824 32.5998 27.2001C32.5998 24.2177 30.1821 21.8 27.1998 21.8C24.2175 21.8 21.7998 24.2177 21.7998 27.2001C21.7998 30.1824 24.2175 32.6 27.1998 32.6Z" fill="#CDDBE7"/>
<path d="M38.1002 32.6C41.0825 32.6 43.5002 30.1824 43.5002 27.2001C43.5002 24.2177 41.0825 21.8 38.1002 21.8C35.1179 21.8 32.7002 24.2177 32.7002 27.2001C32.7002 30.1824 35.1179 32.6 38.1002 32.6Z" fill="#CDDBE7"/>
<path d="M5.4 43.5C8.38234 43.5 10.8 41.0823 10.8 38.0999C10.8 35.1176 8.38234 32.7 5.4 32.7C2.41766 32.7 0 35.1176 0 38.0999C0 41.0823 2.41766 43.5 5.4 43.5Z" fill="#CDDBE7"/>
<path d="M16.2999 43.5C19.2822 43.5 21.6999 41.0823 21.6999 38.0999C21.6999 35.1176 19.2822 32.7 16.2999 32.7C13.3176 32.7 10.8999 35.1176 10.8999 38.0999C10.8999 41.0823 13.3176 43.5 16.2999 43.5Z" fill="#CDDBE7"/>
<path d="M27.1998 43.5C30.1821 43.5 32.5998 41.0823 32.5998 38.0999C32.5998 35.1176 30.1821 32.7 27.1998 32.7C24.2175 32.7 21.7998 35.1176 21.7998 38.0999C21.7998 41.0823 24.2175 43.5 27.1998 43.5Z" fill="#CDDBE7"/>
<path d="M38.1002 43.5C41.0825 43.5 43.5002 41.0823 43.5002 38.0999C43.5002 35.1176 41.0825 32.7 38.1002 32.7C35.1179 32.7 32.7002 35.1176 32.7002 38.0999C32.7002 41.0823 35.1179 43.5 38.1002 43.5Z" fill="#CDDBE7"/>
</g>
<mask id="mask1_1305_2039" style="mask-type:luminance" maskUnits="userSpaceOnUse" x="49" y="0" width="42" height="42">
<path d="M90.7 41.2V0C79.8 0 69.3 4.3 61.6 12C53.9 19.7 49.5 30.2 49.5 41.1L90.7 41.2Z" fill="white"/>
</mask>
<g mask="url(#mask1_1305_2039)">
<path d="M90.7 0C67.9 0 49.5 18.4 49.5 41.2C49.5 64 67.9 82.4 90.7 82.4C113.5 82.4 131.9 64 131.9 41.2C131.9 18.4 113.4 0 90.7 0ZM90.7 75.2C71.9 75.2 56.7 59.9 56.7 41.2C56.7 22.5 72 7.2 90.7 7.2C109.4 7.2 124.7 22.5 124.7 41.2C124.7 59.9 109.4 75.2 90.7 75.2Z" fill="#CDDBE7"/>
<path d="M90.7 9.5C73.2 9.5 59 23.7 59 41.2C59 58.7 73.2 72.8 90.6 72.8C108 72.8 122.2 58.6 122.2 41.2C122.2 23.8 108.1 9.5 90.7 9.5ZM90.7 65.7C77.2 65.7 66.2 54.7 66.2 41.2C66.2 27.7 77.2 16.7 90.7 16.7C104.2 16.7 115.2 27.7 115.2 41.2C115.2 54.7 104.2 65.7 90.7 65.7Z" fill="#CDDBE7"/>
<path d="M90.7001 19.1C78.5001 19.1 68.6001 29 68.6001 41.2C68.6001 53.4 78.5001 63.3 90.7001 63.3C102.9 63.3 112.8 53.4 112.8 41.2C112.8 29 102.8 19.1 90.7001 19.1ZM90.7001 56.1C82.5001 56.1 75.8001 49.4 75.8001 41.2C75.8001 33 82.5001 26.3 90.7001 26.3C98.9001 26.3 105.6 33 105.6 41.2C105.6 49.4 98.9001 56.1 90.7001 56.1Z" fill="#CDDBE7"/>
<path d="M90.7002 44.2C92.357 44.2 93.7002 42.8568 93.7002 41.2C93.7002 39.5431 92.357 38.2 90.7002 38.2C89.0433 38.2 87.7002 39.5431 87.7002 41.2C87.7002 42.8568 89.0433 44.2 90.7002 44.2Z" fill="#CDDBE7"/>
<path d="M90.7002 28.6C83.8002 28.6 78.2002 34.2 78.2002 41.1C78.2002 48 83.8002 53.6 90.7002 53.6C97.6002 53.6 103.2 48 103.2 41.1C103.2 34.2 97.6002 28.6 90.7002 28.6ZM90.7002 46.6C87.7002 46.6 85.3002 44.2 85.3002 41.2C85.3002 38.2 87.7002 35.8 90.7002 35.8C93.7002 35.8 96.1002 38.2 96.1002 41.2C96.1002 44.1 93.6002 46.6 90.7002 46.6Z" fill="#CDDBE7"/>
</g>
<path d="M2.2998 47.1V88.3C13.1998 88.3 23.6998 84 31.3998 76.3C39.0998 68.6 43.4998 58.1 43.4998 47.2L2.2998 47.1ZM19.6998 74C14.0998 74 9.5998 69.6 9.5998 64.1C9.5998 58.6 14.0998 54.2 19.6998 54.2C25.2998 54.2 29.7998 58.6 29.7998 64.1C29.7998 69.6 25.2998 74 19.6998 74Z" fill="#CDDBE7"/>
<path d="M19.6996 57.7C16.0996 57.7 13.0996 60.6 13.0996 64.3C13.0996 67.9 15.9996 70.9 19.6996 70.9C23.2996 70.9 26.2996 68 26.2996 64.3C26.1996 60.7 23.2996 57.7 19.6996 57.7ZM19.6996 67.3C18.0996 67.3 16.6996 66 16.6996 64.3C16.6996 62.7 17.9996 61.2999 19.6996 61.2999C21.2996 61.2999 22.6996 62.6 22.6996 64.3C22.6996 65.9 21.2996 67.3 19.6996 67.3Z" fill="#CDDBE7"/>
<path d="M78.6 59.2C70.9 51.5 60.4 47.1 49.5 47.1V60.6L56.9 67.1V60.1L64.9 67.1V60.1L77.3 70.8L65 81.6V74.6L57 81.6V74.6L49.5 81.1V88.3H90.7C90.7 77.4 86.3 66.9 78.6 59.2Z" fill="#CDDBE7"/>
</g>
<defs>
<clipPath id="clip0_1305_2039">
<rect width="320.7" height="90" fill="white"/>
</clipPath>
</defs>
</svg>
